<mxfile host="app.diagrams.net" agent="Mozilla/5.0 (Macintosh; Intel Mac OS X 10.15; rv:133.0) Gecko/20100101 Firefox/133.0" version="26.0.4">
  <diagram name="Page-1" id="w2J5BL5uCAGfv3HqmTdn">
    <mxGraphModel dx="1406" dy="907" grid="1" gridSize="9" guides="1" tooltips="1" connect="1" arrows="1" fold="1" page="1" pageScale="1" pageWidth="827" pageHeight="1169" math="0" shadow="0">
      <root>
        <mxCell id="0" />
        <mxCell id="1" parent="0" />
        <mxCell id="4aac1YNfTgDad9-p4OCe-34" value="" style="rounded=0;whiteSpace=wrap;html=1;fillColor=#ffe6cc;strokeColor=#d79b00;" vertex="1" parent="1">
          <mxGeometry x="1017" y="200" width="324" height="373" as="geometry" />
        </mxCell>
        <mxCell id="4aac1YNfTgDad9-p4OCe-1" value="" style="rounded=0;whiteSpace=wrap;html=1;align=center;fillColor=#fff2cc;strokeColor=#d6b656;" vertex="1" parent="1">
          <mxGeometry x="27" y="200" width="504" height="340" as="geometry" />
        </mxCell>
        <mxCell id="4aac1YNfTgDad9-p4OCe-46" style="edgeStyle=orthogonalEdgeStyle;rounded=0;orthogonalLoop=1;jettySize=auto;html=1;exitX=0.5;exitY=1;exitDx=0;exitDy=0;entryX=0.5;entryY=1;entryDx=0;entryDy=0;" edge="1" parent="1" source="4aac1YNfTgDad9-p4OCe-2" target="4aac1YNfTgDad9-p4OCe-37">
          <mxGeometry relative="1" as="geometry" />
        </mxCell>
        <mxCell id="4aac1YNfTgDad9-p4OCe-2" value="" style="rounded=0;whiteSpace=wrap;html=1;" vertex="1" parent="1">
          <mxGeometry x="36" y="389" width="486" height="142" as="geometry" />
        </mxCell>
        <mxCell id="4aac1YNfTgDad9-p4OCe-3" value="" style="rounded=0;whiteSpace=wrap;html=1;fillColor=#e1d5e7;strokeColor=#9673a6;" vertex="1" parent="1">
          <mxGeometry x="37" y="210" width="485" height="143" as="geometry" />
        </mxCell>
        <mxCell id="4aac1YNfTgDad9-p4OCe-4" value="&lt;div&gt;&lt;b&gt;ISaveDataService&lt;/b&gt;&lt;/div&gt;&lt;div&gt;(defines methods &amp;amp; variable to implements)&lt;br&gt;&lt;/div&gt;" style="rounded=0;whiteSpace=wrap;html=1;fillColor=#dae8fc;strokeColor=#6c8ebf;" vertex="1" parent="1">
          <mxGeometry x="47" y="220" width="259" height="60" as="geometry" />
        </mxCell>
        <mxCell id="4aac1YNfTgDad9-p4OCe-9" style="edgeStyle=orthogonalEdgeStyle;rounded=0;orthogonalLoop=1;jettySize=auto;html=1;entryX=0.5;entryY=0;entryDx=0;entryDy=0;" edge="1" parent="1" source="4aac1YNfTgDad9-p4OCe-5" target="4aac1YNfTgDad9-p4OCe-6">
          <mxGeometry relative="1" as="geometry" />
        </mxCell>
        <mxCell id="4aac1YNfTgDad9-p4OCe-5" value="&lt;div&gt;&lt;b&gt;SaveDataService&lt;/b&gt; = ISaveDataService&lt;/div&gt;&lt;div&gt;(defines an object of type ISaveDataService)&lt;br&gt;&lt;/div&gt;" style="rounded=0;whiteSpace=wrap;html=1;fillColor=#d5e8d4;strokeColor=#82b366;" vertex="1" parent="1">
          <mxGeometry x="47" y="285" width="259" height="60" as="geometry" />
        </mxCell>
        <mxCell id="4aac1YNfTgDad9-p4OCe-6" value="&lt;div&gt;&lt;b&gt;Inject DISPLAY_DATA_SERVICE_TOKEN of type &lt;/b&gt;&lt;/div&gt;&lt;div&gt;&lt;b&gt;SaveDataService&lt;/b&gt;&lt;/div&gt;&lt;div&gt;(provides an object of type ISaveDataService)&lt;br&gt;&lt;/div&gt;" style="rounded=0;whiteSpace=wrap;html=1;fillColor=#f5f5f5;fontColor=#333333;strokeColor=#666666;" vertex="1" parent="1">
          <mxGeometry x="46" y="399" width="467" height="60" as="geometry" />
        </mxCell>
        <mxCell id="4aac1YNfTgDad9-p4OCe-7" value="&lt;div&gt;&lt;b&gt;Library&lt;/b&gt;&lt;/div&gt;&lt;div&gt;&lt;b&gt;(ngx-wxc)&lt;br&gt;&lt;/b&gt;&lt;/div&gt;" style="text;html=1;align=left;verticalAlign=middle;whiteSpace=wrap;rounded=0;" vertex="1" parent="1">
          <mxGeometry x="27" y="170" width="134" height="30" as="geometry" />
        </mxCell>
        <mxCell id="4aac1YNfTgDad9-p4OCe-8" value="&lt;div&gt;&lt;b&gt;DefaultSaveDataService &lt;/b&gt;implements ISaveDataService&lt;br&gt;&lt;/div&gt;&lt;div&gt;(e.g : with empty method)&lt;br&gt;&lt;/div&gt;" style="text;html=1;align=center;verticalAlign=middle;whiteSpace=wrap;rounded=0;" vertex="1" parent="1">
          <mxGeometry x="315" y="220" width="198" height="124" as="geometry" />
        </mxCell>
        <mxCell id="4aac1YNfTgDad9-p4OCe-10" value="" style="rounded=0;whiteSpace=wrap;html=1;fillColor=#ffe6cc;strokeColor=#d79b00;" vertex="1" parent="1">
          <mxGeometry x="675" y="200" width="324" height="373" as="geometry" />
        </mxCell>
        <mxCell id="4aac1YNfTgDad9-p4OCe-11" value="&lt;div&gt;&lt;b&gt;SaveDataInLocalStorageService&lt;/b&gt; implements ISaveDataService&lt;br&gt;&lt;/div&gt;&lt;div&gt;(with implemented methods &amp;amp; variables)&lt;br&gt;&lt;/div&gt;" style="rounded=0;whiteSpace=wrap;html=1;fillColor=#e1d5e7;strokeColor=#9673a6;" vertex="1" parent="1">
          <mxGeometry x="685" y="211" width="305" height="60" as="geometry" />
        </mxCell>
        <mxCell id="4aac1YNfTgDad9-p4OCe-21" style="edgeStyle=orthogonalEdgeStyle;rounded=0;orthogonalLoop=1;jettySize=auto;html=1;entryX=0.5;entryY=1;entryDx=0;entryDy=0;" edge="1" parent="1" source="4aac1YNfTgDad9-p4OCe-13" target="4aac1YNfTgDad9-p4OCe-11">
          <mxGeometry relative="1" as="geometry" />
        </mxCell>
        <mxCell id="4aac1YNfTgDad9-p4OCe-14" value="" style="rounded=0;whiteSpace=wrap;html=1;" vertex="1" parent="1">
          <mxGeometry x="684.5" y="438" width="305" height="126" as="geometry" />
        </mxCell>
        <mxCell id="4aac1YNfTgDad9-p4OCe-23" style="edgeStyle=orthogonalEdgeStyle;rounded=0;orthogonalLoop=1;jettySize=auto;html=1;entryX=0.5;entryY=0;entryDx=0;entryDy=0;" edge="1" parent="1" source="4aac1YNfTgDad9-p4OCe-13" target="4aac1YNfTgDad9-p4OCe-17">
          <mxGeometry relative="1" as="geometry" />
        </mxCell>
        <mxCell id="4aac1YNfTgDad9-p4OCe-13" value="&lt;div align=&quot;left&quot;&gt;Provides&lt;/div&gt;&lt;div align=&quot;left&quot;&gt;&lt;ul&gt;&lt;li&gt;TOKEN&lt;/li&gt;&lt;li&gt;VALUE&lt;br&gt;&lt;/li&gt;&lt;/ul&gt;&lt;/div&gt;" style="rounded=0;whiteSpace=wrap;html=1;fillColor=#647687;fontColor=#ffffff;strokeColor=#314354;strokeWidth=2;align=left;" vertex="1" parent="1">
          <mxGeometry x="777.5" y="294" width="120" height="125" as="geometry" />
        </mxCell>
        <mxCell id="4aac1YNfTgDad9-p4OCe-17" value="&lt;b&gt;Injection Token of type &lt;/b&gt;&lt;div&gt;&lt;b&gt;SaveDataService&lt;/b&gt;&lt;/div&gt;&lt;div&gt;(need an object of type ISaveDataService)&lt;br&gt;&lt;/div&gt;" style="rounded=0;whiteSpace=wrap;html=1;fillColor=#f5f5f5;fontColor=#333333;strokeColor=#666666;" vertex="1" parent="1">
          <mxGeometry x="693.5" y="448" width="287" height="60" as="geometry" />
        </mxCell>
        <mxCell id="4aac1YNfTgDad9-p4OCe-18" value="&lt;div&gt;&lt;b&gt;Application&lt;/b&gt;&lt;/div&gt;&lt;div&gt;&lt;b&gt;(Backoffice)&lt;br&gt;&lt;/b&gt;&lt;/div&gt;" style="text;html=1;align=left;verticalAlign=middle;whiteSpace=wrap;rounded=0;" vertex="1" parent="1">
          <mxGeometry x="675" y="170" width="135" height="30" as="geometry" />
        </mxCell>
        <mxCell id="4aac1YNfTgDad9-p4OCe-19" value="&lt;div&gt;&lt;b&gt;DisplayDatacomponent&lt;/b&gt;&lt;/div&gt;&lt;div&gt;(imported from library)&lt;br&gt;&lt;/div&gt;" style="text;html=1;align=center;verticalAlign=middle;whiteSpace=wrap;rounded=0;" vertex="1" parent="1">
          <mxGeometry x="693.5" y="519" width="287" height="36" as="geometry" />
        </mxCell>
        <mxCell id="4aac1YNfTgDad9-p4OCe-43" style="edgeStyle=orthogonalEdgeStyle;rounded=0;orthogonalLoop=1;jettySize=auto;html=1;entryX=0.5;entryY=1;entryDx=0;entryDy=0;exitX=0.5;exitY=1;exitDx=0;exitDy=0;" edge="1" parent="1" source="4aac1YNfTgDad9-p4OCe-2" target="4aac1YNfTgDad9-p4OCe-14">
          <mxGeometry relative="1" as="geometry" />
        </mxCell>
        <mxCell id="4aac1YNfTgDad9-p4OCe-33" value="&lt;div&gt;&lt;b&gt;DisplayDataComponent&lt;/b&gt;&lt;/div&gt;&lt;div&gt;(implements methods &amp;amp; variables defined in ISaveDataService)&lt;br&gt;&lt;/div&gt;" style="text;html=1;align=center;verticalAlign=middle;whiteSpace=wrap;rounded=0;" vertex="1" parent="1">
          <mxGeometry x="47" y="468" width="466" height="54" as="geometry" />
        </mxCell>
        <mxCell id="4aac1YNfTgDad9-p4OCe-35" value="&lt;div&gt;&lt;b&gt;SaveDataInDatabaseService &lt;/b&gt;implements ISaveDataService&lt;/div&gt;&lt;div&gt;(with implements methods &amp;amp; variables)&lt;br&gt;&lt;/div&gt;" style="rounded=0;whiteSpace=wrap;html=1;fillColor=#e1d5e7;strokeColor=#9673a6;" vertex="1" parent="1">
          <mxGeometry x="1027" y="211" width="305" height="60" as="geometry" />
        </mxCell>
        <mxCell id="4aac1YNfTgDad9-p4OCe-36" style="edgeStyle=orthogonalEdgeStyle;rounded=0;orthogonalLoop=1;jettySize=auto;html=1;entryX=0.5;entryY=1;entryDx=0;entryDy=0;" edge="1" parent="1" source="4aac1YNfTgDad9-p4OCe-39" target="4aac1YNfTgDad9-p4OCe-35">
          <mxGeometry relative="1" as="geometry" />
        </mxCell>
        <mxCell id="4aac1YNfTgDad9-p4OCe-37" value="" style="rounded=0;whiteSpace=wrap;html=1;" vertex="1" parent="1">
          <mxGeometry x="1027" y="438" width="305" height="126" as="geometry" />
        </mxCell>
        <mxCell id="4aac1YNfTgDad9-p4OCe-38" style="edgeStyle=orthogonalEdgeStyle;rounded=0;orthogonalLoop=1;jettySize=auto;html=1;entryX=0.5;entryY=0;entryDx=0;entryDy=0;" edge="1" parent="1" source="4aac1YNfTgDad9-p4OCe-39" target="4aac1YNfTgDad9-p4OCe-40">
          <mxGeometry relative="1" as="geometry" />
        </mxCell>
        <mxCell id="4aac1YNfTgDad9-p4OCe-39" value="&lt;div align=&quot;left&quot;&gt;Provides&lt;/div&gt;&lt;div align=&quot;left&quot;&gt;&lt;ul&gt;&lt;li&gt;TOKEN&lt;/li&gt;&lt;li&gt;VALUE&lt;br&gt;&lt;/li&gt;&lt;/ul&gt;&lt;/div&gt;" style="rounded=0;whiteSpace=wrap;html=1;fillColor=#647687;fontColor=#ffffff;strokeColor=#314354;strokeWidth=2;align=left;" vertex="1" parent="1">
          <mxGeometry x="1119.5" y="294" width="120" height="125" as="geometry" />
        </mxCell>
        <mxCell id="4aac1YNfTgDad9-p4OCe-40" value="&lt;b&gt;Injection Token of type &lt;/b&gt;&lt;div&gt;&lt;b&gt;SaveDataService&lt;/b&gt;&lt;/div&gt;&lt;div&gt;(need an object of type ISaveDataService)&lt;br&gt;&lt;/div&gt;" style="rounded=0;whiteSpace=wrap;html=1;fillColor=#f5f5f5;fontColor=#333333;strokeColor=#666666;" vertex="1" parent="1">
          <mxGeometry x="1036" y="448" width="287" height="60" as="geometry" />
        </mxCell>
        <mxCell id="4aac1YNfTgDad9-p4OCe-41" value="&lt;div&gt;&lt;b&gt;Application&lt;/b&gt;&lt;/div&gt;&lt;div&gt;&lt;b&gt;(Technic-NRV)&lt;br&gt;&lt;/b&gt;&lt;/div&gt;" style="text;html=1;align=left;verticalAlign=middle;whiteSpace=wrap;rounded=0;" vertex="1" parent="1">
          <mxGeometry x="1017" y="170" width="135" height="30" as="geometry" />
        </mxCell>
        <mxCell id="4aac1YNfTgDad9-p4OCe-42" value="&lt;div&gt;&lt;b&gt;DisplayDatacomponent&lt;/b&gt;&lt;/div&gt;&lt;div&gt;(imported from library)&lt;br&gt;&lt;/div&gt;" style="text;html=1;align=center;verticalAlign=middle;whiteSpace=wrap;rounded=0;" vertex="1" parent="1">
          <mxGeometry x="1036" y="519" width="287" height="36" as="geometry" />
        </mxCell>
      </root>
    </mxGraphModel>
  </diagram>
</mxfile>
